<svg xmlns="http://www.w3.org/2000/svg" xmlns:xlink="http://www.w3.org/1999/xlink" width="539" height="522" viewBox="0 0 539 522">
    <defs>
        <linearGradient id="a" x1="50%" x2="50%" y1="0%" y2="84.492%">
            <stop offset="0%" stop-color="#9E0000"/>
            <stop offset="100%" stop-color="#84142D"/>
        </linearGradient>
        <path id="b" d="M268.994 473.508l-141.457 46.904a14 14 0 0 1-12.736-2.037l-9.439-6.987a14 14 0 0 1-5.668-11.47l2.108-135.568L4.586 232.968a14 14 0 0 1-2.715-7.396L.116 199.26a14 14 0 0 1 9.788-14.293l155.76-48.745L257.649 8.987c4.53-6.266 13.281-7.673 19.547-3.143a14 14 0 0 1 3.144 3.143l91.984 127.235 156.067 55.387a14 14 0 0 1 8.973 16.283l-6.709 29.653a14 14 0 0 1-2.42 5.265l-92.05 123.792 2.121 134.17a14 14 0 0 1-4.594 10.593l-7.48 6.783a14 14 0 0 1-13.811 2.917l-143.427-47.557z"/>
        <filter id="c" width="103.3%" height="103.5%" x="-1.7%" y="-1.7%" filterUnits="objectBoundingBox">
            <feGaussianBlur in="SourceAlpha" result="shadowBlurInner1" stdDeviation="9"/>
            <feOffset in="shadowBlurInner1" result="shadowOffsetInner1"/>
            <feComposite in="shadowOffsetInner1" in2="SourceAlpha" k2="-1" k3="1" operator="arithmetic" result="shadowInnerInner1"/>
            <feColorMatrix in="shadowInnerInner1" values="0 0 0 0 1 0 0 0 0 0.316915761 0 0 0 0 0 0 0 0 1 0"/>
        </filter>
        <linearGradient id="d" x1="50%" x2="50%" y1="3.985%" y2="97.529%">
            <stop offset="0%" stop-color="#FF2C00"/>
            <stop offset="100%" stop-color="#FC2F00"/>
        </linearGradient>
        <path id="e" d="M115.891 505.598l153.607-51.905 153.608 51.905c.99.335 2.03.5 3.077.487 5.1-.064 9.183-4.24 9.12-9.328l-2.014-161.787 96.948-129.708a9.206 9.206 0 0 0 1.415-2.77c1.516-4.858-1.203-10.023-6.074-11.535l-154.851-48.085-93.69-132.07a9.225 9.225 0 0 0-2.203-2.197c-4.164-2.94-9.927-1.956-12.874 2.198l-93.69 132.069-154.852 48.085a9.243 9.243 0 0 0-2.776 1.41c-4.089 3.043-4.932 8.816-1.883 12.895l96.948 129.708-2.013 161.787a9.194 9.194 0 0 0 .487 3.07c1.636 4.82 6.88 7.404 11.71 5.771zm153.607-44.61l-151.385 51.155c-8.454 2.857-17.629-1.664-20.492-10.099a16.09 16.09 0 0 1-.853-5.373l1.984-159.447L3.207 209.393c-5.336-7.139-3.861-17.242 3.295-22.565a16.176 16.176 0 0 1 4.858-2.47L163.97 136.97 256.306 6.811c5.157-7.27 15.243-8.991 22.529-3.847a16.143 16.143 0 0 1 3.856 3.847l92.334 130.158 152.612 47.39c8.523 2.646 13.281 11.684 10.628 20.187a16.11 16.11 0 0 1-2.475 4.847l-95.545 127.831 1.984 159.447c.11 8.905-7.035 16.213-15.96 16.323a16.196 16.196 0 0 1-5.386-.85l-151.385-51.155z"/>
        <filter id="f" width="102.8%" height="102.9%" x="-1.4%" y="-1.5%" filterUnits="objectBoundingBox">
            <feGaussianBlur in="SourceAlpha" result="shadowBlurInner1" stdDeviation="7.5"/>
            <feOffset in="shadowBlurInner1" result="shadowOffsetInner1"/>
            <feComposite in="shadowOffsetInner1" in2="SourceAlpha" k2="-1" k3="1" operator="arithmetic" result="shadowInnerInner1"/>
            <feColorMatrix in="shadowInnerInner1" values="0 0 0 0 1 0 0 0 0 0.242774196 0 0 0 0 0.0218197601 0 0 0 1 0"/>
        </filter>
        <linearGradient id="g" x1="50%" x2="50%" y1="3.985%" y2="95.011%">
            <stop offset="0%" stop-color="#FFC400"/>
            <stop offset="100%" stop-color="#FCBC00"/>
        </linearGradient>
        <filter id="h" width="113.1%" height="113.8%" x="-6.6%" y="-6.9%" filterUnits="objectBoundingBox">
            <feGaussianBlur in="SourceGraphic" stdDeviation="10"/>
        </filter>
    </defs>
    <g fill="none" fill-rule="evenodd">
        <g>
            <use fill="url(#a)" xlink:href="#b"/>
            <use fill="#000" filter="url(#c)" xlink:href="#b"/>
        </g>
        <g fill-rule="nonzero">
            <use fill="url(#d)" fill-rule="evenodd" xlink:href="#e"/>
            <use fill="#000" filter="url(#f)" xlink:href="#e"/>
        </g>
        <path fill="url(#g)" d="M269.499 439.259l-128.636 43.467c-7.183 2.427-14.98-1.415-17.413-8.582a13.672 13.672 0 0 1-.724-4.565l1.686-135.486-81.187-108.621c-4.534-6.066-3.28-14.65 2.8-19.174a13.745 13.745 0 0 1 4.128-2.098l129.677-40.268 78.459-110.599c4.381-6.176 12.952-7.64 19.143-3.268a13.717 13.717 0 0 1 3.276 3.268l78.46 110.6L488.843 204.2c7.242 2.249 11.286 9.929 9.032 17.154a13.69 13.69 0 0 1-2.104 4.118l-81.187 108.621 1.687 135.486c.094 7.566-5.978 13.776-13.562 13.87a13.763 13.763 0 0 1-4.576-.723l-128.635-43.467z" filter="url(#h)" style="mix-blend-mode:soft-light"/>
    </g>
</svg>
