<svg xmlns="http://www.w3.org/2000/svg" width="19" height="18" viewBox="0 0 19 18">
    <g fill="none" fill-rule="nonzero">
        <path stroke="#FFF" stroke-linejoin="square" d="M4.869 15.848l4.166-1.626 4.166 1.626a.5.5 0 0 0 .681-.495l-.258-4.465 2.833-3.46a.5.5 0 0 0-.26-.8l-4.326-1.134L9.456 1.73a.5.5 0 0 0-.842 0L6.2 5.494 1.873 6.628a.5.5 0 0 0-.26.8l2.833 3.46-.258 4.465a.5.5 0 0 0 .68.495z"/>
        <path stroke="#000" d="M9.035 15.296l-3.803 1.483a1.5 1.5 0 0 1-2.042-1.484l.235-4.075L.84 8.062a1.5 1.5 0 0 1 .78-2.402l3.95-1.035L7.772 1.19a1.5 1.5 0 0 1 2.525 0l2.204 3.435 3.949 1.035a1.5 1.5 0 0 1 .78 2.402l-2.586 3.158.236 4.075a1.5 1.5 0 0 1-2.043 1.484l-3.803-1.483zm-5.61-4.076l.012-.195.112.346-.124-.151zm9.077-6.595l.106.164-.294-.213.188.05z"/>
    </g>
</svg>
