<svg xmlns="http://www.w3.org/2000/svg" width="25" height="25" viewBox="0 0 25 25"><path fill="#fff" d="M0 12.5a12.5 12.5 0 1 0 25 0 12.5 12.5 0 0 0-25 0zm24.06 0a11.57 11.57 0 1 1-23.13-.01 11.57 11.57 0 0 1 23.13.01z"/><path fill="#fff" d="M7 17l.1 1.14c3.11 2.02 8.77 1.93 11.67 0l.09-1.13c-2.96 1.91-8.68 2-11.86-.01"/><path fill="#fff" d="M18.91 8.4a1.64 1.64 0 0 0-1.23 2.7L16 12.65l-2.15-4.44 1.26-1.48L12.78 4l-2.32 2.73 1.2 1.41-2.14 4.48-1.66-1.52a1.63 1.63 0 1 0-1.42.55l.3 3.62c3.42 2.22 8.76 2.1 12.07-.02l.3-3.6a1.63 1.63 0 0 0 1.44-1.62c0-.9-.74-1.63-1.64-1.63"/></svg>