<svg xmlns="http://www.w3.org/2000/svg" width="22" height="22" viewBox="0 0 22 22">
    <path fill="#FEAE06" fill-rule="evenodd" d="M6.86 0h8.28a1 1 0 0 1 .707.293l5.86 5.86A1 1 0 0 1 22 6.86v8.28a1 1 0 0 1-.293.707l-5.86 5.86a1 1 0 0 1-.707.293H6.86a1 1 0 0 1-.707-.293l-5.86-5.86A1 1 0 0 1 0 15.14V6.86a1 1 0 0 1 .293-.707l5.86-5.86A1 1 0 0 1 6.86 0zm.414 2L2 7.274v7.452L7.274 20h7.452L20 14.726V7.274L14.726 2H7.274zM10 7a1 1 0 0 1 2 0v4a1 1 0 0 1-2 0V7zm.293 7.707a1 1 0 1 1 1.414-1.414 1 1 0 0 1-1.414 1.414z"/>
</svg>
