<svg xmlns="http://www.w3.org/2000/svg" width="25" height="25" viewBox="0 0 25 25"><path fill="#fff" d="M20.25 17.28c1.04-1.64 1.33-3.18 1.34-3.21l1.71.3c-.26 1.26-.8 2.57-1.74 3.87zm1.12-11.13a9.78 9.78 0 0 1 1.77 4.4l-1.65.25c-.39-2.16-1.43-3.67-1.45-3.7zM7.19 17.74A7.47 7.47 0 1 1 17.83 7.26 7.47 7.47 0 0 1 7.19 17.74zm7.34 3.66a9.95 9.95 0 0 0 2.99-1.3l1.04 1.45a9.88 9.88 0 0 1-3.8 1.37zm-4.23 1.8c-.03-.01-1.9-.35-3.89-1.61l1.08-1.49c1.05.76 2.1 1.2 3.11 1.42zM2.11 10.08c.01-.03.36-1.89 1.61-3.87l1.24.91a8.11 8.11 0 0 0-1.44 3.21zm1.33 8.15c-.02-.03-1.05-1.5-1.6-3.7l1.78-.27a8.26 8.26 0 0 0 1.09 3.07zM11.05 3.4a8.04 8.04 0 0 0-3.66 1.5l-1-1.4c.04-.02 1.83-1.27 4.41-1.75zm3.56-1.51c.04.01 1.95.37 3.97 1.67l-1.07 1.46a8.13 8.13 0 0 0-3.2-1.43zM0 12.5a12.5 12.5 0 1 0 25 0 12.5 12.5 0 0 0-25 0z"/><path fill="#fff" d="M13.06 16.96V18h-.85v-1.04a2.8 2.8 0 0 1-1.6-.69c-.43-.4-.62-.99-.61-1.76l.02-.02h1.5c0 .48.11.8.32 1.01.22.2.49.3.83.3.32 0 .56-.08.73-.25.17-.17.26-.4.26-.69a.99.99 0 0 0-.25-.69 2.13 2.13 0 0 0-.84-.5 5.27 5.27 0 0 1-1.73-.95 1.9 1.9 0 0 1-.57-1.48c0-.59.18-1.07.56-1.45.37-.37.9-.6 1.5-.66V8h.85v1.14c.61.09 1.11.35 1.46.77.36.43.53.97.53 1.65l-.02.02h-1.49c0-.43-.09-.73-.26-.95a.81.81 0 0 0-.7-.34c-.3 0-.52.09-.67.26-.15.18-.22.41-.22.7 0 .27.08.49.23.66.16.17.45.34.86.5.78.31 1.35.64 1.73.98.37.35.56.83.56 1.46 0 .61-.21 1.1-.58 1.46-.38.37-.88.58-1.55.65"/></svg>