<?xml version="1.0" encoding="UTF-8"?>
<svg width="100px" height="15px" viewBox="0 0 100 15" version="1.1" xmlns="http://www.w3.org/2000/svg" xmlns:xlink="http://www.w3.org/1999/xlink">
    <!-- Generator: Sketch 47.1 (45422) - http://www.bohemiancoding.com/sketch -->
    <title>stars_sprite</title>
    <desc>Created with Sketch.</desc>
    <defs>

    </defs>
    <g id="Page-1" stroke="none" stroke-width="1" fill="none" fill-rule="evenodd">
        <g id="stars_sprite" stroke="#FFFFFF" fill="#FFFFFF">
            <g id="1" transform="translate(84.000000, 2.000000)">
                <polygon id="5st" fill="transparent" points="6 9 2.47328849 10.854102 3.14683045 6.92705098 0.293660902 4.14589803 4.23664424 3.57294902 6 0 7.76335576 3.57294902 11.7063391 4.14589803 8.85316955 6.92705098 9.52671151 10.854102"></polygon>
            </g>
            <g id="2" transform="translate(64.000000, 2.000000)">
                <polygon id="4st" fill="transparent" points="6 9 2.47328849 10.854102 3.14683045 6.92705098 0.293660902 4.14589803 4.23664424 3.57294902 6 0 7.76335576 3.57294902 11.7063391 4.14589803 8.85316955 6.92705098 9.52671151 10.854102"></polygon>
            </g>
            <g id="3" transform="translate(44.000000, 2.000000)">
                <polygon id="3st" fill="transparent" points="6 9 2.47328849 10.854102 3.14683045 6.92705098 0.293660902 4.14589803 4.23664424 3.57294902 6 0 7.76335576 3.57294902 11.7063391 4.14589803 8.85316955 6.92705098 9.52671151 10.854102"></polygon>
            </g>
            <g id="4" transform="translate(24.000000, 2.000000)">
                <polygon id="2st" fill="transparent" points="6 9 2.47328849 10.854102 3.14683045 6.92705098 0.293660902 4.14589803 4.23664424 3.57294902 6 0 7.76335576 3.57294902 11.7063391 4.14589803 8.85316955 6.92705098 9.52671151 10.854102"></polygon>
            </g>
            <g id="5" transform="translate(4.000000, 2.000000)">
                <polygon id="1st" fill="transparent" points="6 9 2.47328849 10.854102 3.14683045 6.92705098 0.293660902 4.14589803 4.23664424 3.57294902 6 0 7.76335576 3.57294902 11.7063391 4.14589803 8.85316955 6.92705098 9.52671151 10.854102"></polygon>
            </g>

        </g>
    </g>
    <animate
            xlink:href="#1st"
            attributeName="fill"
            from="transparent"
            to="#ffffff"
            dur="1s"
            repeatCount="indefinite"
            begin="0s"
            end="move.begin"
            fill="freeze"
            id="changeColor"/>
    <animate
            xlink:href="#2st"
            attributeName="fill"
            from="transparent"
            to="#ffffff"
            dur="1s"
            repeatCount="indefinite"
            begin=".1s"
            end="move.begin"
            fill="freeze"
            id="changeColor"/>
    <animate
            xlink:href="#3st"
            attributeName="fill"
            from="transparent"
            to="#ffffff"
            dur="1s"
            repeatCount="indefinite"
            begin=".2s"
            end="move.begin"
            fill="freeze"
            id="changeColor"/>
    <animate
            xlink:href="#4st"
            attributeName="fill"
            from="transparent"
            to="#ffffff"
            dur="1s"
            repeatCount="indefinite"
            begin=".3s"
            end="move.begin"
            fill="freeze"
            id="changeColor"/>
    <animate
            xlink:href="#5st"
            attributeName="fill"
            from="transparent"
            to="#ffffff"
            dur="1s"
            repeatCount="indefinite"
            begin=".4s"
            end="move.begin"
            fill="freeze"
            id="changeColor"/>
</svg>