<svg xmlns="http://www.w3.org/2000/svg" xmlns:xlink="http://www.w3.org/1999/xlink" width="2682" height="616" viewBox="0 0 2682 616">
  <defs>
    <polygon id="logo_full_dumb-a" points=".314 .126 108.371 .126 108.371 533.421 .314 533.421"/>
  </defs>
  <g fill="none" fill-rule="evenodd" transform="translate(566 36)">
    <g transform="translate(0 1)">
      <mask id="logo_full_dumb-b" fill="#fff">
        <use xlink:href="#logo_full_dumb-a"/>
      </mask>
      <path fill="#ED1C24" d="M0,121.046373 L55.7385714,121.046373 C70.18,121.046373 82.5628571,126.228529 92.892381,136.550882 C103.195714,146.888971 108.370952,159.293627 108.370952,173.754363 L108.370952,533.421225 L0,533.421225 L0,121.046373 Z M0,0.125882353 L55.7385714,0.125882353 C70.18,0.125882353 82.5628571,5.30803922 92.892381,15.6251471 C103.195714,25.9684804 108.370952,38.3731373 108.370952,52.8338725 L108.370952,85.3901961 L0,85.3901961 L0,0.125882353 Z" mask="url(#logo_full_dumb-b)"/>
    </g>
    <path fill="#ED1C24" d="M526,534 L471.839276,534 C456.368523,534 443.719677,529.11415 433.929387,519.295321 C424.112919,509.502674 419.233481,496.850785 419.233481,481.371072 L419.233481,270.871072 C419.233481,246.106675 411.736317,228.066211 396.789109,216.697316 C381.826195,205.354604 365.072757,199.672774 346.502618,199.672774 C327.932479,199.672774 311.419871,205.354604 296.980502,216.697316 C282.520191,228.066211 275.316212,246.106675 275.316212,270.871072 L275.316212,534 L167,534 L167,292.540575 C167,222.384382 185.303131,175.442521 221.930335,151.694044 C258.536597,127.966515 299.038034,115.078974 343.403232,113 C388.789342,113 430.573464,124.87162 468.750361,148.599149 C506.901081,172.347625 526,220.326355 526,292.540575 L526,534"/>
    <path fill="#FFF" d="M850.335041 325.201048C850.335041 288.038357 842.610395 259.143357 827.150644 238.484611 811.690893 216.798952 790.55664 205.958743 763.768804 205.958743 734.909905 205.958743 712.75581 216.295975 697.301289 236.933764 681.841538 258.614183 674.116892 288.038357 674.116892 325.201048 674.116892 368.561886 681.313312 400.066082 695.753222 419.66648 711.218202 441.346899 732.854532 452.187108 760.683129 452.187108 789.515879 452.187108 811.690893 441.346899 827.150644 419.66648 842.610395 397.986061 850.335041 366.508062 850.335041 325.201048zM674.116892 52.6502011L674.116892 176.539807C685.444978 156.939409 701.94026 140.917485 723.581819 128.531668 742.132474 118.225872 764.788645 113.049397 791.597401 113.049397 840.021567 113.049397 879.706475 133.178969 910.620747 173.438114 941.540249 213.707737 957 265.849722 957 329.848349 957 393.873173 941.540249 445.988961 910.620747 486.253345 895.160996 505.87994 874.293471 520.08381 848.01817 528.83876 821.73764 537.598948 795.702917 542 769.955842 542 720.490915 542 674.618968 529.105966 632.376611 503.291702 590.108104 477.493156 569 427.939409 569 354.625222L569 0 621.555831 0C635.980051 0 648.343667 5.17647514 658.657141 15.4875106 668.944465 25.8195035 674.116892 38.2053205 674.116892 52.6502011zM1076.83118 286.458087L1234.61962 286.458087C1232.5418 258.581549 1225.33487 237.936143 1212.96218 224.50615 1199.54796 210.059606 1180.47601 202.823234 1155.73063 202.823234 1133.03167 202.823234 1114.4674 210.059606 1100.03782 224.50615 1085.58208 238.978894 1077.85177 259.624299 1076.83118 286.458087zM1262.4634 407.259909L1339.81365 407.259909C1328.45632 450.62574 1306.79364 483.679349 1274.8361 506.378815 1242.86284 530.147232 1202.64637 542 1154.18143 542 1095.39545 542 1049.49507 522.91086 1016.50123 484.70114 983.486453 447.52893 967 394.36439 967 325.176082 967 259.110784 982.978775 207.47107 1014.95726 170.3041 1047.9511 132.11534 1093.84625 113 1152.63223 113 1214.51138 113 1262.4634 131.586105 1296.49877 168.753075 1329.49261 206.962795 1346 260.127334 1346 328.272893 1346 332.412454 1346 336.01754 1346 339.114351 1346 342.211161 1346 344.296662 1346 345.313212 1346 350.490283 1345.47139 354.09537 1344.4508 356.14943L1076.83118 356.14943C1077.85177 388.165529 1085.58208 411.907745 1100.03782 427.397039 1113.4311 443.923844 1133.53411 452.176766 1160.36777 452.176766 1177.89052 452.176766 1192.8487 448.57168 1205.23186 441.335308 1208.32503 440.318758 1211.15128 438.500495 1213.73678 435.911959 1216.30134 433.349623 1219.15375 430.49385 1222.24693 427.397039 1223.26228 424.294988 1227.12482 420.181627 1233.84502 415.004556 1240.54427 409.848445 1250.09071 407.259909 1262.4634 407.259909zM1546 534.765231C1511.99791 536.819266 1475.15142 536.316237 1435.50235 533.214225 1395.82715 530.117454 1376 504.829772 1376 457.324982L1376 2 1431.63836 2C1445.01855 2 1456.87196 7.17700564 1467.18291 17.483858 1477.47295 27.8169097 1482.63888 40.2092359 1482.63888 54.6555968L1482.63888 124.351297 1546 124.351297 1546 146.028698C1546 161.517796 1540.83407 174.172117 1530.54403 183.97594 1520.23308 193.800723 1507.87248 198.684295 1493.45179 198.684295L1482.63888 198.684295 1482.63888 427.903032C1482.63888 445.467124 1492.92369 454.22821 1513.5456 454.22821L1546 454.22821 1546 534.765231"/>
  </g>
</svg>
